<svg width="206" height="110" viewBox="0 0 206 110" fill="none" xmlns="http://www.w3.org/2000/svg">
<path fill-rule="evenodd" clip-rule="evenodd" d="M10.4417 38.4251L11.1739 70.741V70.7959C11.1739 73.5768 12.6385 76.787 16.5107 80.2692C20.3813 83.75 26.2556 87.1077 33.928 90.0274C49.2391 95.8537 70.7184 99.5609 94.683 99.5609C118.648 99.5609 140.128 95.8576 155.438 90.0332C163.111 87.1146 168.985 83.7574 172.855 80.2762C176.726 76.7941 178.192 73.582 178.192 70.7959C178.192 68.0098 176.726 64.7976 172.855 61.3155C172.476 60.9747 172.078 60.6351 171.661 60.2969C167.723 62.7138 163.171 64.8792 158.165 66.7833C141.492 73.1258 118.787 76.9467 93.9505 76.9467C77.2739 76.9467 65.0866 76.1555 53.198 73.4779C41.3682 70.8136 30.0732 66.3352 15.1195 59.2523C14.3092 58.9106 12.8527 58.0429 12.3007 56.0827C11.7108 53.988 12.6988 52.4267 12.9405 52.0658C13.2874 51.5478 13.6544 51.2195 13.7929 51.099C13.9714 50.9436 14.1267 50.8314 14.2191 50.7672C14.517 50.5601 14.7903 50.4214 14.8587 50.3867L14.8652 50.3834C15.0738 50.2772 15.2988 50.1767 15.4744 50.1004C15.8599 49.9326 16.3921 49.7146 17.0368 49.4603C18.3396 48.9465 20.2283 48.2344 22.5905 47.392C27.3171 45.7064 33.9964 43.4789 41.7509 41.2562C57.1623 36.8388 77.2182 32.3226 94.683 32.3226C119.52 32.3226 142.225 36.1436 158.898 42.4861C163.547 44.2548 167.806 46.2489 171.544 48.4607C171.741 48.292 171.934 48.1231 172.122 47.9539C175.994 44.4717 177.46 41.2596 177.46 38.4735C177.46 35.6874 175.994 32.4753 172.122 28.9931C168.252 25.512 162.378 22.1548 154.706 19.2362C139.395 13.4118 117.916 9.70847 93.9505 9.70847C69.9853 9.70847 48.506 13.4118 33.1951 19.2362C25.5228 22.1548 19.6489 25.512 15.7786 28.9931C11.9297 32.4551 10.4586 35.6502 10.4417 38.4251ZM179.568 54.2909C184.125 49.8906 187.179 44.5622 187.179 38.4735C187.179 31.9743 183.699 26.3414 178.627 21.779C173.553 17.2155 166.485 13.3286 158.165 10.1637C141.492 3.82117 118.787 0.000244141 93.9505 0.000244141C69.1138 0.000244141 46.4087 3.82117 29.7356 10.1637C21.4159 13.3286 14.3479 17.2155 9.27431 21.779C4.20182 26.3414 0.72168 31.9743 0.72168 38.4735V38.5284L1.4542 70.8551C1.47527 77.3264 4.95081 82.937 10.0071 87.484C15.0803 92.0463 22.148 95.9336 30.4675 99.0995C47.1404 105.444 69.8456 109.269 94.683 109.269C119.52 109.269 142.225 105.448 158.898 99.1057C167.218 95.9408 174.286 92.0539 179.359 87.4904C184.432 82.928 187.912 77.2951 187.912 70.7959C187.912 64.3864 184.527 58.8194 179.568 54.2909ZM162.181 54.454C160.118 53.4516 157.869 52.4831 155.438 51.5586C140.128 45.7342 118.648 42.0309 94.683 42.0309C78.5994 42.0309 59.591 46.2427 44.4321 50.5878C38.7974 52.2029 33.7497 53.8201 29.6548 55.2133C39.3095 59.4154 47.2508 62.1865 55.3361 64.0075C66.188 66.4516 77.5406 67.2385 93.9505 67.2385C117.916 67.2385 139.395 63.5352 154.706 57.7108C157.427 56.6757 159.922 55.5854 162.181 54.454Z" fill="#053057"/>
<path d="M185.916 12.7761V1.42971H181.664V0.000244141H191.777V1.42971H187.524V12.7761H185.916Z" fill="#053057"/>
<path d="M192.703 12.7761V0.000244141H194.901L198.903 10.614H198.939L202.942 0.000244141H205.139V12.7761H203.531V2.26952H203.495L199.636 12.7761H198.206L194.347 2.26952H194.311V12.7761H192.703Z" fill="#053057"/>
</svg>
